<svg xmlns="http://www.w3.org/2000/svg" viewBox="0 0 180 53.334"><g fill="#3b3b3b"><g data-name="&lt;Group&gt;"><g data-name="&lt;Group&gt;"><path d="M39.153 25.703a7.198 7.198 0 0 1 3.427-6.04 7.368 7.368 0 0 0-5.805-3.137c-2.442-.257-4.81 1.46-6.054 1.46-1.269 0-3.185-1.435-5.248-1.393a7.73 7.73 0 0 0-6.506 3.968c-2.813 4.87-.714 12.027 1.98 15.963 1.348 1.928 2.924 4.081 4.985 4.005 2.017-.084 2.77-1.287 5.206-1.287 2.413 0 3.12 1.287 5.223 1.238 2.164-.035 3.528-1.936 4.83-3.882a15.943 15.943 0 0 0 2.207-4.497 6.955 6.955 0 0 1-4.245-6.399zM35.18 13.936A7.087 7.087 0 0 0 36.8 8.86a7.21 7.21 0 0 0-4.665 2.413 6.743 6.743 0 0 0-1.663 4.89 5.962 5.962 0 0 0 4.707-2.227z" data-name="&lt;Path&gt;"/></g><path d="M64.653 35.65h-6.885l-1.653 4.88H53.2l6.521-18.06h3.03l6.52 18.06h-2.966zm-6.172-2.253h5.457l-2.69-7.923h-.075zM83.353 33.947c0 4.092-2.19 6.721-5.495 6.721a4.464 4.464 0 0 1-4.143-2.303h-.062v6.522H70.95V27.363h2.616v2.19h.05a4.671 4.671 0 0 1 4.193-2.328c3.342 0 5.545 2.642 5.545 6.722zm-2.778 0c0-2.665-1.378-4.418-3.48-4.418-2.065 0-3.454 1.79-3.454 4.418 0 2.654 1.39 4.43 3.454 4.43 2.102 0 3.48-1.74 3.48-4.43zM97.846 33.947c0 4.092-2.19 6.721-5.495 6.721a4.464 4.464 0 0 1-4.143-2.303h-.062v6.522h-2.703V27.363h2.616v2.19h.05a4.671 4.671 0 0 1 4.193-2.328c3.342 0 5.544 2.642 5.544 6.722zm-2.778 0c0-2.665-1.377-4.418-3.48-4.418-2.065 0-3.454 1.79-3.454 4.418 0 2.654 1.39 4.43 3.455 4.43 2.102 0 3.48-1.74 3.48-4.43zM107.424 35.498c.2 1.79 1.94 2.967 4.318 2.967 2.278 0 3.917-1.176 3.917-2.791 0-1.402-.989-2.241-3.33-2.817l-2.34-.563c-3.317-.802-4.856-2.353-4.856-4.87 0-3.116 2.715-5.256 6.572-5.256 3.816 0 6.432 2.14 6.52 5.257h-2.728c-.164-1.803-1.653-2.89-3.83-2.89s-3.668 1.1-3.668 2.702c0 1.277.952 2.028 3.28 2.604l1.99.488c3.705.876 5.245 2.365 5.245 5.007 0 3.379-2.692 5.495-6.973 5.495-4.005 0-6.71-2.067-6.884-5.333zM124.347 24.247v3.116h2.504v2.14h-2.504v7.26c0 1.127.501 1.653 1.602 1.653a8.446 8.446 0 0 0 .89-.063v2.128a7.423 7.423 0 0 1-1.502.125c-2.666 0-3.705-1.002-3.705-3.555v-7.548h-1.915v-2.14h1.915v-3.116zM128.302 33.947c0-4.143 2.44-6.746 6.245-6.746 3.818 0 6.246 2.603 6.246 6.746 0 4.155-2.416 6.747-6.246 6.747-3.83 0-6.245-2.592-6.245-6.747zm9.737 0c0-2.842-1.302-4.519-3.492-4.519s-3.491 1.69-3.491 4.52c0 2.853 1.3 4.517 3.49 4.517s3.493-1.664 3.493-4.518zM143.022 27.362h2.578v2.241h.062a3.14 3.14 0 0 1 3.167-2.379 4.169 4.169 0 0 1 .926.101v2.528a3.778 3.778 0 0 0-1.214-.163 2.724 2.724 0 0 0-2.816 3.03v7.81h-2.703zM162.211 36.663c-.364 2.39-2.692 4.03-5.67 4.03-3.83 0-6.208-2.566-6.208-6.683 0-4.13 2.39-6.81 6.094-6.81 3.644 0 5.935 2.503 5.935 6.496v.926h-9.3v.163a3.43 3.43 0 0 0 3.542 3.73 2.979 2.979 0 0 0 3.04-1.852zm-9.137-3.93h6.583a3.167 3.167 0 0 0-3.23-3.342 3.333 3.333 0 0 0-3.353 3.342z"/></g><path d="M58.143 8.875a3.839 3.839 0 0 1 4.083 4.312c0 2.772-1.498 4.366-4.083 4.366h-3.135V8.875zm-1.787 7.451h1.636a2.728 2.728 0 0 0 2.862-3.121 2.736 2.736 0 0 0-2.862-3.104h-1.636zM63.75 14.275a3.103 3.103 0 1 1 6.177 0 3.103 3.103 0 1 1-6.177 0zm4.847 0c0-1.42-.638-2.25-1.757-2.25-1.123 0-1.755.83-1.755 2.25 0 1.431.632 2.255 1.755 2.255 1.12 0 1.757-.83 1.757-2.255zM78.136 17.554h-1.34l-1.354-4.824h-.102l-1.348 4.824h-1.328l-1.805-6.55h1.31l1.174 4.998h.097l1.346-4.998h1.24l1.346 4.998h.103l1.167-4.998h1.293zM81.454 11.004h1.244v1.04h.097a1.96 1.96 0 0 1 1.954-1.166 2.13 2.13 0 0 1 2.267 2.436v4.24h-1.293v-3.916c0-1.052-.457-1.575-1.413-1.575a1.502 1.502 0 0 0-1.563 1.66v3.83h-1.293zM89.075 8.448h1.292v9.105h-1.292zM92.164 14.275a3.103 3.103 0 1 1 6.178 0 3.103 3.103 0 1 1-6.178 0zm4.848 0c0-1.42-.638-2.25-1.757-2.25-1.124 0-1.756.83-1.756 2.25 0 1.431.632 2.255 1.756 2.255 1.119 0 1.757-.83 1.757-2.255zM99.702 15.7c0-1.178.878-1.858 2.436-1.954l1.774-.103v-.565c0-.692-.457-1.082-1.34-1.082-.722 0-1.222.265-1.366.728h-1.25c.131-1.125 1.19-1.847 2.675-1.847 1.642 0 2.568.818 2.568 2.201v4.475h-1.244v-.92h-.103a2.203 2.203 0 0 1-1.967 1.028 1.978 1.978 0 0 1-2.183-1.96zm4.21-.559v-.548l-1.6.103c-.901.06-1.31.367-1.31.944 0 .59.511.933 1.214.933a1.544 1.544 0 0 0 1.696-1.432zM106.897 14.275c0-2.069 1.064-3.38 2.719-3.38a2.158 2.158 0 0 1 2.008 1.149h.097V8.447h1.292v9.106h-1.238v-1.035h-.103a2.273 2.273 0 0 1-2.056 1.143c-1.666 0-2.719-1.311-2.719-3.386zm1.335 0c0 1.39.655 2.225 1.75 2.225 1.09 0 1.763-.848 1.763-2.219 0-1.365-.68-2.225-1.763-2.225-1.088 0-1.75.842-1.75 2.22zM118.36 14.275a3.103 3.103 0 1 1 6.178 0 3.103 3.103 0 1 1-6.177 0zm4.848 0c0-1.42-.637-2.25-1.757-2.25-1.123 0-1.755.83-1.755 2.25 0 1.431.632 2.255 1.755 2.255 1.12 0 1.757-.83 1.757-2.255zM126.271 11.004h1.244v1.04h.097a1.96 1.96 0 0 1 1.954-1.166 2.13 2.13 0 0 1 2.267 2.436v4.24h-1.292v-3.916c0-1.052-.457-1.575-1.413-1.575a1.502 1.502 0 0 0-1.564 1.66v3.83h-1.293zM139.137 9.374v1.66h1.419v1.089h-1.42v3.367c0 .686.284.986.927.986a4.315 4.315 0 0 0 .493-.03v1.077a4.24 4.24 0 0 1-.703.066c-1.438 0-2.01-.505-2.01-1.768v-3.699h-1.04v-1.088h1.04v-1.66zM142.322 8.448h1.281v3.608h.102a2.015 2.015 0 0 1 1.997-1.173 2.157 2.157 0 0 1 2.256 2.442v4.228h-1.294v-3.91c0-1.045-.487-1.575-1.4-1.575a1.53 1.53 0 0 0-1.65 1.66v3.825h-1.292zM155.492 15.785a2.659 2.659 0 0 1-2.838 1.895 2.975 2.975 0 0 1-3.025-3.38 3.02 3.02 0 0 1 3.02-3.422c1.821 0 2.92 1.245 2.92 3.301v.451h-4.624v.073a1.731 1.731 0 0 0 1.744 1.876 1.57 1.57 0 0 0 1.558-.794zm-4.547-2.11h3.308a1.58 1.58 0 0 0-1.612-1.697 1.675 1.675 0 0 0-1.696 1.696z"/><path d="M173.33 0H6.66C2.993 0-.007 3-.007 6.667v40c0 3.667 3 6.668 6.667 6.668h166.67c3.667 0 6.667-3 6.667-6.667V6.667c0-3.667-3-6.667-6.667-6.667zm0 1.066c3.088 0 5.6 2.513 5.6 5.6v40.002c0 3.088-2.512 5.6-5.6 5.6H6.66a5.606 5.606 0 0 1-5.6-5.6V6.667c0-3.088 2.512-5.6 5.6-5.6h166.67"/></g></svg>