<svg xmlns="http://www.w3.org/2000/svg" xml:space="preserve" viewBox="0 0 180 53.333"><path fill="none" d="M173.33 53.334H6.66c-3.667 0-6.667-3-6.667-6.667v-40c0-3.667 3-6.668 6.667-6.668h166.67c3.667 0 6.667 3 6.667 6.667v40.001c0 3.667-3 6.667-6.667 6.667"/><path fill="#3b3b3b" d="M173.33 0H6.66C2.993 0-.007 3-.007 6.667v40c0 3.667 3 6.668 6.667 6.668h166.67c3.667 0 6.667-3 6.667-6.667V6.667c0-3.667-3-6.667-6.667-6.667zm0 1.066c3.088 0 5.6 2.513 5.6 5.6v40.002c0 3.088-2.512 5.6-5.6 5.6H6.66a5.606 5.606 0 0 1-5.6-5.6V6.667c0-3.088 2.512-5.6 5.6-5.6h166.67"/><g stroke-width=".133"><path fill="#eb3131" d="M27.096 25.284 12.902 40.35l.002.008a3.833 3.833 0 0 0 5.649 2.313l.045-.027 15.978-9.22-7.48-8.14"/><path fill="#f6b60b" d="m41.457 22.719-.013-.01-6.899-3.999-7.771 6.916 7.798 7.798 6.862-3.96a3.836 3.836 0 0 0 .023-6.745"/><path fill="#5778c5" d="M12.9 11.755c-.085.314-.13.644-.13.986v26.623c0 .342.044.672.13.986l14.685-14.681L12.9 11.755"/><path fill="#3bad49" d="m27.201 26.053 7.347-7.346-15.96-9.253a3.843 3.843 0 0 0-5.686 2.297v.004l14.3 14.298"/></g><g fill="#3b3b3b"><path d="M142.054 39.385h2.488v-16.67h-2.488zm22.41-10.664-2.853 7.226h-.085l-2.96-7.226h-2.68l4.44 10.1-2.532 5.618h2.595l6.841-15.718zm-14.11 8.77c-.814 0-1.951-.408-1.951-1.415 0-1.287 1.416-1.78 2.637-1.78 1.093 0 1.61.235 2.273.557a3.016 3.016 0 0 1-2.96 2.638zm.3-9.135c-1.8 0-3.666.794-4.438 2.552l2.208.922c.472-.922 1.35-1.222 2.273-1.222 1.287 0 2.595.771 2.616 2.144v.172c-.45-.258-1.416-.644-2.594-.644-2.382 0-4.804 1.308-4.804 3.753 0 2.23 1.952 3.667 4.138 3.667 1.672 0 2.596-.75 3.173-1.63h.087v1.287h2.403v-6.39c0-2.96-2.21-4.611-5.061-4.611zM135.28 30.75h-3.54v-5.714h3.54c1.86 0 2.915 1.54 2.915 2.857 0 1.292-1.056 2.857-2.915 2.857zm-.064-8.034h-5.962v16.669h2.487V33.07h3.475c2.757 0 5.468-1.996 5.468-5.176s-2.711-5.177-5.468-5.177zm-32.507 14.778c-1.72 0-3.158-1.44-3.158-3.415 0-1.998 1.439-3.458 3.158-3.458 1.696 0 3.028 1.46 3.028 3.458 0 1.975-1.332 3.415-3.028 3.415zm2.856-7.84h-.086c-.558-.666-1.633-1.268-2.985-1.268-2.836 0-5.435 2.493-5.435 5.693 0 3.179 2.599 5.649 5.435 5.649 1.352 0 2.427-.602 2.985-1.289h.086v.816c0 2.17-1.16 3.33-3.028 3.33-1.525 0-2.47-1.096-2.857-2.02l-2.17.903c.623 1.503 2.277 3.35 5.027 3.35 2.922 0 5.392-1.718 5.392-5.907V28.73h-2.364zm4.082 9.73h2.491V22.715h-2.49zm6.164-5.499c-.064-2.19 1.698-3.308 2.965-3.308.988 0 1.825.495 2.106 1.203zm7.733-1.89c-.472-1.267-1.911-3.609-4.854-3.609-2.922 0-5.349 2.299-5.349 5.671 0 3.18 2.406 5.67 5.628 5.67 2.599 0 4.103-1.588 4.726-2.512l-1.933-1.29c-.645.946-1.525 1.57-2.793 1.57-1.267 0-2.17-.581-2.749-1.72l7.582-3.135zm-60.409-1.869v2.406h5.757c-.172 1.353-.623 2.341-1.31 3.029-.839.837-2.15 1.761-4.447 1.761-3.544 0-6.315-2.857-6.315-6.4s2.77-6.402 6.315-6.402c1.912 0 3.308.752 4.339 1.719l1.697-1.698c-1.44-1.374-3.35-2.427-6.036-2.427-4.855 0-8.936 3.953-8.936 8.807 0 4.854 4.08 8.807 8.936 8.807 2.62 0 4.597-.86 6.143-2.47 1.59-1.59 2.084-3.824 2.084-5.628 0-.558-.044-1.074-.13-1.504zm14.772 7.368c-1.719 0-3.201-1.418-3.201-3.437 0-2.04 1.482-3.436 3.201-3.436 1.718 0 3.2 1.396 3.2 3.436 0 2.02-1.482 3.437-3.2 3.437zm0-9.108c-3.137 0-5.693 2.385-5.693 5.671 0 3.265 2.556 5.67 5.693 5.67 3.136 0 5.692-2.405 5.692-5.67 0-3.286-2.556-5.67-5.692-5.67zm12.417 9.108c-1.718 0-3.2-1.418-3.2-3.437 0-2.04 1.483-3.436 3.2-3.436 1.719 0 3.2 1.396 3.2 3.436 0 2.02-1.481 3.437-3.2 3.437zm0-9.108c-3.136 0-5.691 2.385-5.691 5.671 0 3.265 2.555 5.67 5.691 5.67 3.137 0 5.693-2.405 5.693-5.67 0-3.286-2.556-5.67-5.693-5.67M62.667 12.427h-3.89v.962h2.915c-.079.786-.391 1.402-.918 1.85-.528.448-1.2.673-1.996.673-.873 0-1.613-.304-2.219-.908-.594-.617-.896-1.38-.896-2.298 0-.919.302-1.681.896-2.298.606-.604 1.346-.906 2.219-.906.448 0 .875.077 1.266.246.392.168.707.404.952.706l.74-.74a3.33 3.33 0 0 0-1.288-.885 4.396 4.396 0 0 0-1.67-.315c-1.165 0-2.152.404-2.959 1.21-.806.809-1.21 1.805-1.21 2.982s.404 2.175 1.21 2.981c.807.806 1.794 1.21 2.959 1.21 1.222 0 2.197-.391 2.947-1.187.66-.662.998-1.558.998-2.679 0-.19-.023-.392-.056-.604zm1.507-3.734v8.025h4.685v-.985h-3.654v-2.546h3.296v-.962h-3.296V9.68h3.654v-.988zm11.255.988v-.988h-5.515v.988h2.242v7.037h1.031V9.681zm4.992-.988h-1.03v8.025h1.03zm6.807.988v-.988h-5.514v.988h2.241v7.037h1.031V9.681zm10.406.056c-.796-.819-1.77-1.223-2.935-1.223-1.167 0-2.142.404-2.938 1.21-.796.797-1.187 1.794-1.187 2.982s.391 2.185 1.187 2.981c.796.806 1.771 1.21 2.938 1.21 1.154 0 2.14-.404 2.935-1.21.796-.796 1.187-1.794 1.187-2.981 0-1.177-.391-2.173-1.187-2.969zm-5.133.671c.594-.604 1.323-.906 2.198-.906.873 0 1.602.302 2.185.906.594.594.885 1.369.885 2.298 0 .931-.291 1.704-.885 2.298-.583.604-1.312.908-2.185.908-.875 0-1.604-.304-2.198-.908-.581-.607-.873-1.367-.873-2.298 0-.93.292-1.692.873-2.298zm8.77 1.312-.043-1.548h.043l4.08 6.546h1.077V8.693h-1.032v4.696l.044 1.548h-.044l-3.9-6.244h-1.256v8.025h1.031z"/></g></svg>