<?xml version="1.0" encoding="UTF-8"?>
<svg width="101px" height="22px" viewBox="0 0 101 22" version="1.1" xmlns="http://www.w3.org/2000/svg" xmlns:xlink="http://www.w3.org/1999/xlink">
    <!-- Generator: Sketch 45.1 (43504) - http://www.bohemiancoding.com/sketch -->
    <title>Bayt Logo</title>
    <desc>Created with Sketch.</desc>
    <defs></defs>
    <g id="homepage-&amp;-navigation" stroke="none" stroke-width="1" fill="none" fill-rule="evenodd">
        <g id="Bayt-Logo">
            <polygon id="Fill-1" fill="#F6BB2D" points="9.49794905 0 0 4.83926755 0 7 9.49794905 2.14242116 19 7 19 4.83926755"></polygon>
            <path d="M46.7559646,18.9999922 C45.7843443,19.0030747 45.0211441,18.0947589 45,16.9675841 C45.0211441,15.8044466 45.7843443,14.9680563 46.7559646,15.0009365 L57.9985685,15.0009365 L57.9985685,16.5195912 C58.0438772,17.8830925 57.0078178,19.0030747 55.7170227,18.9999922 L46.7559646,18.9999922 Z M55.7620246,5.00019861 L42.0081414,5.00019861 L42.0081414,8.0134549 L55.7620246,8.0134549 C57.0666845,7.99188028 58.1159079,9.07369374 58.0680771,10.4585793 L58.0680771,11.9770222 L46.7047134,11.9770222 C44.1025174,11.936955 42.0183182,14.1961267 42,16.9905546 C42.0183182,19.7490249 44.1025174,22.0081966 46.7047134,21.9999776 L55.7620246,21.9999776 C58.6858061,22.0081966 60.9603107,19.5384154 61,16.5426243 L61,10.4585793 C60.9603107,7.44326832 58.6858061,4.97451453 55.7620246,5.00019861 L55.7620246,5.00019861 Z" id="Fill-2" fill="#007AFF"></path>
            <path d="M78.186067,5 L81,5 L81,16.4699662 C80.9716554,19.5323906 78.6992017,22.0113005 75.8803816,21.9979454 L63.0002116,22 L63.0002116,19.0248973 L75.8803816,19.0248973 C77.1490461,19.0351704 78.1557676,17.8671139 78.186067,16.4699662 L78.186067,15.0245347 L68.0357736,15.0245347 C65.2413886,15.0481629 62.9747992,12.5158327 63.0002116,9.44724438 L63.0002116,5 L65.8180543,5 L65.8180543,9.44724438 C65.7926419,10.8423374 66.7837249,11.9764926 68.0132934,11.9764926 L78.186067,11.9734107 L78.186067,5 Z" id="Fill-4" fill="#007AFF"></path>
            <path d="M26.2831564,18.9999922 C25.0459433,19.0030642 24.0080535,17.8868985 24,16.5280434 L24,15.0145636 C24,15.0145636 35.3271939,14.9817955 35.3271939,15.0145636 C36.2654222,14.9817955 37.0264743,15.8153358 36.9992939,16.9745097 C37.0264743,18.0978435 36.2654222,19.0030642 35.3271939,18.9999922 L26.2831564,18.9999922 Z M23.9289688,11.9738229 L23.9289688,5 L21,5 L21,16.5425605 C21.0193365,19.5517425 23.3824586,22.0081966 26.2371346,21.9999776 L35.3802393,21.9999776 C37.944868,22.0081966 40.0321907,19.7489986 39.999624,16.9904961 C40.0321907,14.1960355 37.944868,11.9368374 35.3802393,11.9769051 L23.9289688,11.9738229 Z" id="Fill-7" fill="#007AFF"></path>
            <path d="M101,11.9745931 L101,15.0253356 L85.8280943,15.0232813 L85.8280943,16.468532 C85.7897839,17.865505 86.8870334,19.0313612 88.1434185,19.0200621 L101,19.0200621 L101,21.9999288 L88.1434185,21.9999288 C85.3231827,22.0153366 83.0422397,19.5285192 83,16.468532 L83,5 L85.8280943,5 L85.8280943,11.9787019 L101,11.9745931 Z" id="Fill-9" fill="#007AFF"></path>
        </g>
    </g>
</svg>