<?xml version="1.0" encoding="UTF-8"?>
<svg fill="none" version="1.1" viewBox="0 0 250 250" xmlns="http://www.w3.org/2000/svg"><g transform="translate(-8.9247 -64.936)" clip-path="url(#q)" mask="url(#p)"><mask id="i" x="-77" y="72" width="466" height="478" maskUnits="userSpaceOnUse"><path d="m-76.15 72.625h464.75v476.67h-464.75z" fill="#fff"/></mask><mask id="h" x="-77" y="19" width="466" height="478" maskUnits="userSpaceOnUse"><path d="m-76.15 19.477h464.75v476.67h-464.75z" fill="#fff"/></mask><mask id="g" x="-77" y="-34" width="466" height="478" maskUnits="userSpaceOnUse"><path d="m-76.15-33.195h464.75v476.67h-464.75z" fill="#fff"/></mask><mask x="-77" y="-39" width="466" height="478" maskUnits="userSpaceOnUse"><path d="m-76.15-38.333h464.75v476.67h-464.75z" fill="#fff"/></mask><mask id="f" x="-77" y="-39" width="466" height="478" maskUnits="userSpaceOnUse"><path d="m-76.15-38.333h464.75v476.67h-464.75z" fill="#fff"/></mask><mask id="e" x="-77" y="-39" width="466" height="478" maskUnits="userSpaceOnUse"><path d="m-76.15-38.333h464.75v476.67h-464.75z" fill="#fff"/></mask><mask id="c" x="-77" y="-39" width="466" height="478" maskUnits="userSpaceOnUse"><path d="m-76.15-38.333h464.75v476.67h-464.75z" fill="#fff"/></mask><mask id="b" x="-77" y="-29" width="466" height="478" maskUnits="userSpaceOnUse"><path d="m-76.15-28.007h464.75v476.67h-464.75z" fill="#fff"/></mask><mask id="k" x="-77" y="6" width="466" height="478" maskUnits="userSpaceOnUse"><path d="m-76.15 6.6288h464.75v476.67h-464.75z" fill="#fff"/></mask><g transform="matrix(.76319 0 0 .76319 2.1134 23.629)"><path d="m235 344.33 101.49-66.209-136.81-37.136z" fill="#c2d8f0"/><path d="m240.68 100.91-149.73-35.846c-1.265-0.3727-2.4041 0.0668-3.1965 1.0554l-0.0028-0.0048-8.286 6.6157 7.1631 17.78-4e-4 195.96c0 3.325 1.945 6.619 4.3222 7.319l130.68 38.516 12.907 12.016 8.414-6.57-0.035-0.061c1.246-0.697 2.084-2.363 2.084-4.543l1e-3 -224.92c0-3.325-1.946-6.618-4.323-7.319z" fill="#0e2d82"/><path d="m232.03 344.78-149.29-40.995c-2.3703-0.651-4.3097-3.903-4.3097-7.229l5e-4 -220.19c0-3.3247 1.9389-5.5131 4.3092-4.8624l149.29 36.263c2.371 0.651 4.309 3.904 4.309 7.229v224.92c0 3.325-1.939 5.513-4.309 4.863z" fill="#91aff5"/><path d="m228.04 329.02-137.85-37.852v-202.36l137.85 33.314z" fill="#fff"/><path d="m228.04 329.02-137.85-37.852v-202.36l137.85 33.314z" stroke="#35519c" stroke-miterlimit="10" stroke-width="1.6359"/><path d="m190.17 94.454-1.293-0.3193c-1.033-6.6533-5.838-12.767-11.443-14.154l-37.12-9.1853c-5.605-1.3871-10.17 2.4067-10.892 8.6257l-1.292-0.3193c-6.224-1.5401-11.169 3.3066-10.988 10.771 0.181 7.4641 5.421 14.832 11.646 16.372l62.04 15.353c6.224 1.54 11.168-3.307 10.988-10.771-0.181-7.465-5.422-14.833-11.646-16.373z" fill="#0e2d82"/><g mask="url(#i)"><path d="m149.44 279.87s43.822 11.782 60.758 16.335" stroke="#849ad1" stroke-linecap="round" stroke-linejoin="round" stroke-width="7.0985"/><path d="m149.76 263.47s36.349 9.852 39.837 10.798" stroke="#849ad1" stroke-linecap="round" stroke-linejoin="round" stroke-width="7.0985"/><path d="m128.2 282.92-25.98-7.079-0.015-29.9 25.981 7.079z" fill="#2f71ff"/></g><g mask="url(#h)"><path d="m149.44 226.72 67.328 18.101" stroke="#849ad1" stroke-linecap="round" stroke-linejoin="round" stroke-width="7.0985"/><path d="m149.76 210.32 40.105 10.87" stroke="#849ad1" stroke-linecap="round" stroke-linejoin="round" stroke-width="7.0985"/><path d="m128.2 229.77-25.98-7.079-0.015-29.9 25.981 7.079z" fill="#2f71ff"/></g><g mask="url(#g)"><path d="m149.44 174.05 67.328 18.101" stroke="#849ad1" stroke-linecap="round" stroke-linejoin="round" stroke-width="7.0985"/><path d="m149.76 157.65 40.105 10.87" stroke="#849ad1" stroke-linecap="round" stroke-linejoin="round" stroke-width="7.0985"/><path d="m128.2 177.1-25.98-7.079-0.015-29.9 25.981 7.079z" fill="#2f71ff"/><path d="m107.71 154.47 5.911 10.583 7.704-10.221" stroke="#fff" stroke-linecap="round" stroke-linejoin="round" stroke-width="7.9093"/></g><path d="m186.18 97.842-1.293-0.3193c-1.033-6.6533-5.838-12.767-11.443-14.154l-37.12-9.1858c-5.605-1.3867-10.17 2.4071-10.892 8.6262l-1.292-0.3194c-6.224-1.5401-11.169 3.3067-10.988 10.771 0.181 7.4638 5.422 14.832 11.646 16.372l62.039 15.353c6.225 1.54 11.169-3.307 10.989-10.772-0.181-7.464-5.422-14.832-11.646-16.372z" fill="#b9d0ff"/><path d="m128.56 88.98 52.311 13.902" stroke="#fff" stroke-linecap="round" stroke-linejoin="round" stroke-width="4.4387"/><g transform="matrix(.95409 0 0 .92019 4.0924 20.135)"><path d="m105.11 205.09 8.305-24.317-23.691 10.911c-3.7221 6.577 11.15 17.944 15.386 13.406z" fill="#fbe7c6"/></g><path d="m113.2 185.79-4.5834 10.754c-0.14407-3.4342-1.7317-5.6647-5.8171-5.8128z" fill="#11389e" stroke-width=".93698"/><path d="m24.513 283.69c0.0512-0.048 0.0989-0.098 0.1487-0.145l0.0035 3e-3 15.348-14.332c4.2798-3.997 4.7337-10.467 1.0138-14.45-3.7203-3.984-10.206-3.974-14.486 0.023l-15.348 14.332 0.0035 4e-3c-0.0516 0.046-0.104 0.091-0.1552 0.138-4.2803 3.997-1.3382 7.691 2.3821 11.675 3.7199 3.984 6.8097 6.749 11.09 2.752z" fill="#2f71ff"/><path d="m19.868 260.94 68.953-64.062c4.1032-1.288 7.3222 0.463 9.214 6.77l-63.808 57.912c-3.9056-7.814-9.146-4.099-14.359-0.62z" fill="#11389e"/><path d="m97.948 203.05c1.6036 0.183 5.3784-0.241 6.4544 5.866l-66.804 62.618c-1.6593-6.649-5.3997-9.431-5.3997-9.431z" fill="#0e2d82"/><path d="m31.962 277.05c-0.0589 0.037 0.0984-0.097 0.1487-0.145l0.0035 3e-3 6.8223-6.431c3.989-4.512-8.1502-19.753-12.951-15.455-0.0521 0.046 0.1036-0.092 0.1556-0.138l-0.0039-4e-3 -7.8534 7.311 3e-3 3e-3c-0.0516 0.047-0.2163 0.174-0.1556 0.138 4.5169-2.641 18.565 11.699 13.83 14.718z" fill="#fbe7c6"/><path d="m79.854 330.45c-6.9982-2.27-18.772-2.183-26.297 0.193-1.2845 0.405-2.3572 0.851-3.2263 1.324-4.9017-0.907-11.473-0.648-15.93 0.759-5.2879 1.669-5.5882 4.316-0.6706 5.911 4.7255 1.532 12.543 1.532 17.838 0.047 0.3258 0.127 0.6669 0.251 1.0336 0.37 6.9982 2.27 18.772 2.184 26.297-0.193 7.5258-2.375 7.9533-6.141 0.9551-8.411z" fill="#c2d7ef"/><path d="m68.131 329.92 5.3521 0.92c3.9202-0.545 6.0009-2.208 7.2724-0.826l0.244 1.346c0.4727 0.962-0.2705 2.506-1.7107 3.08l-5.6932 2.036-1.7247-0.331-0.0325 1.703-3.2073 0.957c-2.0816 0.506-4.2669-0.23-4.2785-2.14 0 0 0.0112-5.341 0.9611-5.552 1.9083-0.425 1.1521-0.787 2.8173-1.193z" fill="#1637a1"/><path d="m70.912 332.54c-0.0265 2.238-5.3354 2.173-5.3089-0.066l0.0855-7.274 5.3084 0.065z" fill="#ed5353"/><g fill="#1637a1"><path d="m72.823 326.22c-2.0146 2.354-6.6776 1.854-7.5924 0.035-0.0495-10.206-2.9121-21.348 1.7421-34.915 0 0 1.2233-3.444 5.3337-2.735 4.0944 0.705 5.0564 4.608 5.0564 4.608z"/><path d="m65.58 292.28-11.051-39.927s0.8855-7.564 10.086-8.255c9.6075-0.722 9.9446 7.124 9.9446 7.124l2.1388 39.407s-5.4596 9.947-11.119 1.651z"/><path d="m36.572 323.11 0.0753 5.047c1.1154 3.497 3.672 3.91 2.6784 5.299l-0.7943 1.396c-0.8412 0.876-3.1998-0.738-3.7812-1.506l-3.2207-5.411-0.7919-0.706-0.8868-0.152c-0.5089-1.188-2.6876-2.212-2.2215-3.37 0.2491-0.619 2.3145-2.235 2.7727-2.665 0 0 1.463-1.491 2.2052-1.511 1.7693-0.05 3.3402 2.122 3.9648 3.579z"/></g><path d="m36.03 322.15c-0.9449 1.794-5.874 0.223-4.9291-1.57l3.0712-5.827 4.9287 1.571z" fill="#ed5353"/><path d="m39.78 319.34c-2.769 1.108-5.925-3.742-6.1294-5.54 3.9522-8.106 7.1691-20.21 15.877-23.801 0 0 2.5816-1.906 5.1764-0.339 3.6653 2.214 2.4979 5.612 2.4979 5.612-0.2756 0.596-2.1573 4.959-2.5655 5.47z" fill="#1637a1"/><path d="m47.304 290.64-1.1741-23.769c-1.0384-3.383-0.926-6.362-0.4536-11.929 0 0 2.8425-5.461 9.2558-5.05 6.9815 0.447 6.2213 8.352 6.2213 8.352l-4.5816 33.565c-0.0934 0.687-8.4596 6.779-9.2678-1.169z" fill="#1637a1"/><path d="m69.325 200.92c-0.122 4.406-4.0415 7.017-7.2339 4.999-3.1923-2.017-5.6814-7.223-5.5594-11.629s2.8092-6.343 6.0015-4.325c3.1923 2.017 6.9138 6.549 6.7918 10.955z" fill="#ec5252"/><path d="m59.037 214.48-0.4392-0.117c-1.4839-0.394-2.3841-1.96-2.0003-3.483l2.1653-8.581c0.3839-1.522 1.912-2.445 3.3959-2.051l0.4392 0.116c1.484 0.394 2.3837 1.962 1.9998 3.483l-0.8992 8.56c-0.3835 1.522-3.178 2.466-4.6615 2.073z" fill="#ec5252"/><path d="m54.656 204.79s0.7993 2.97 6.0755 2.367c1.6016-0.183 3.2849-3.114 2.6244-4.987-0.4581-1.299-1.3291-0.983-1.4594-1.717-0.1261-0.71 2.9557-1.657 3.337-2.192 0.2907-0.408-3.5791-1.791-3.5298-1.875 0.0874-0.078 5.0791 0.245 5.4371-0.03 3.2847-2.521 1.1396-5.84-0.8256-7.299-0.9915-0.736-6.2458-4.005-2.7423-0.397 1.6151 1.664-2.364-0.402-4.2233 0.233-3.608 1.235-9.9149 4.737-4.6936 15.897z" fill="#11389e"/><path d="m65.261 200.25c-0.0306 1.072-0.9018 1.916-1.9466 1.886-1.0444-0.03-1.8662-0.923-1.8356-1.995 0.0301-1.071 0.9017-1.916 1.9461-1.885 1.0444 0.03 1.8662 0.923 1.8361 1.994z" fill="#ec5252"/><path d="m64.079 206.89-0.6916-0.915s0.9725 0.59 2.3963 9e-3c0 0-0.7412 0.739-1.7047 0.906z" fill="#b94141"/><path d="m43.85 255.96c0.455-10.82 2.0407-17.89 1.5258-27.244 0.1994-17.877 2.3767-18.643 6.2216-19.775l3.8444-0.44c1.1939 0.233 2.3 0.797 3.4805 1.093 4.9426 1.241 8.1113 1.517 11.662 3.489 3.1613 1.755 3.3453 6.448 3.3374 10.379 0.8542 11.523 1.0801 28.869 1.239 34.556-1.7976 8.143-28.302 3.454-31.31-2.058z" fill="#a0e7e5"/><path d="m74.304 224.8-2.8996 3.209c-3.4043 14.091-1.8269 28.376-7.4095 34.387 3.4155-9e-3 6.5456-0.47 8.8605-2.216 0.1241 0.015 1.1916-0.958 1.3473-2.716z" fill="#6ba6a5"/><path d="m54.791 208.26s-1.293 0.617 3.7947 1.65c3.5595 0.722 6.1505 1.172 6.1505 1.172s-3.2737-3.518-9.9452-2.822z" fill="#fbe7c6"/><path d="m85.076 229.51h9e-4c1.3413 1.186 3.3628 1.141 4.4928-0.101l2.7337-3.004c1.1305-1.242 0.9581-3.229-0.3827-4.416h-0.0014c-1.3403-1.186-3.3623-1.139-4.4928 0.103l-2.7331 3.002c-1.1306 1.243-0.9586 3.229 0.3826 4.416z" fill="#ec5252"/><path d="m88.191 231.81s-8.2966 11.322-12.272 13.311c-3.976 1.989-7.9528-5.957-7.9528-5.957l15.68-12.041z" fill="#ec5252"/><path d="m62.325 222.78 5.6469 20.443c0.7129 5.025 13.189 3.967 11.746-1.955-0.0911-0.373-7.4959-25.576-7.4959-25.576s-9.8149-7.272-9.8974 7.088z" fill="#a0e7e5"/><path d="m69.296 239.91c1.7958 2.978 8.2902 2.643 9.7856-0.644" stroke="#fbe7c6" stroke-linecap="round" stroke-linejoin="round" stroke-width="2.0263"/><g mask="url(#f)"><path d="m251.8 347.45c0 4.487 9.061 8.125 20.238 8.125 11.178 0 20.239-3.638 20.239-8.125 0-4.486-9.061-8.124-20.239-8.124-11.177 0-20.238 3.638-20.238 8.124z" fill="#c2d7ef"/><path d="m262.03 215.96c0.94 2.49 2.818 7.469 6.019 7.707 3.598 0.267 6.994-4.32 8.692-6.613" fill="#0e2e82"/><path d="m263.81 214c0.911 1.672 2.732 5.015 5.14 5.282 1.793 0.198 2.856-2.827 3.387-4.339" fill="#0e2e82"/><path d="m255.14 347.28 8.272-5.955c1.056-0.438 3.294-0.497 4.767-0.213 0.66 0.126 1.095 0.666 1.055 1.275l-0.086 1.314c-0.052 1.895-0.28 2.153-1.674 2.731l-8.276 3.426c-1.394 0.577-3.381 0.511-4.416-0.146l-0.294-0.186c-1.035-0.658-0.741-1.668 0.652-2.246z" fill="#0e2d82"/><path d="m267.94 340.16c0.462 2.51-4.795 5.159-5.468 2.677-6.236-13.746-8.934-18.173-10.403-22.941 0 0-0.636-3.941 3.048-5.815 3.92-1.993 6.304 0.795 6.304 0.795 1.164 3.688 1.097 2.69 1.677 4.579 0.31 1.01 1.248 2.005 1.915 4.263 1.384 4.688 1.424 11.928 2.927 16.442z" fill="#ec5252"/><path d="m261.39 318.15c-0.138 2.62-7.856 6.491-9.379-0.577-2.633-23.714-2.157-21.21-2.943-47.373l16.23-13.236c-1.662 22.635-4.256 56.241-3.908 61.186z" fill="#ec5252"/><path d="m261.49 325.21c-0.689-2.299-1.711-3.725-2.517-6.079-1.026-2.996 2.152-3.893 2.633-2.016 0.619 2.42 2.557 4.596 3.246 6.895 1.429 4.774 1.453 12.12 3.007 16.717 0.362 1.95-4.94-10.744-6.369-15.517z" fill="#d34949"/><path d="m258.58 317.41c-0.03-6.495-0.16-11.881 0.231-18.421 0.746-12.452 3.947-13.307 3.155-0.084-0.392 6.539-0.261 11.925-0.232 18.421 0.012 2.544-3.143 2.628-3.154 0.084z" fill="#d34949"/><path d="m263.58 349.75 5.875-9.336c0.796-0.709 1.469-1.504 2.823-1.29 1.084 0.172 2.111 1.483 2.337 2.08l0.489 1.291c0.774 1.841 0.673 2.153-0.378 3.087l-6.24 5.552c-1.051 0.935-2.935 1.412-4.187 1.058l-0.354-0.1c-1.252-0.353-1.415-1.407-0.365-2.342z" fill="#0e2d82"/><g fill="#ec5252"><path d="m273.74 340.98s-4.38 5.479-6.104 4.774c0 0-1.105-0.454-0.159-1.959 0.946-1.504 2.439-4.659 2.439-4.659z"/><path d="m274.13 340.87c0.211 2.326-3.43 3.545-4.564 1.201-2.945-9.735-5.619-16.757-7.515-24.024-1.437-5.505 10.411-6.418 10.177-0.406-0.113 2.91 1.614 3.228 1.79 8.214 0.179 5.065-0.082 7.795 0.112 15.015z"/><path d="m267.49 323.17c-1.864 0.145-3.793-0.268-5.286-4.316-1.961-5.318-1.886-11.794-2.817-18.045-2.222-14.911 12.801-18.674 12.052-3.518-0.306 6.194-0.172 12.428 0.549 18.612 0.191 1.637-1.087 6.999-4.498 7.267z"/><path d="m244.45 242.51-13.96 5.021s-5.808 2.356-5.218 4.581c0.897 3.374 4.838 2.041 4.838 2.041l15.511-4.08s1.966-1.786 1.548-4.68c-0.316-2.19-2.719-2.883-2.719-2.883z"/></g><path d="m246.62 249.91-6.485-3.693s-0.189 4.105 2.578 4.879c2.767 0.775 3.907-1.186 3.907-1.186z" fill="#b94141"/><path d="m246.62 249.89s-5.321 0.301-6.485-3.695l1.588-3.387 6.982 3.477z" fill="#fbe7c6"/><path d="m249.96 224.8-9.733 18.491s2.59 8.125 11.489 4.16c8.301-3.698 5.503-18.323 4.065-22.145s-5.936-0.56-5.821-0.506z" fill="#a0e7e5"/><path d="m271.11 259.61c6.951 0.142 0.048 28.34 2.795 48.615 0 0-17.745 13.672-30.019 1.699l2.779-46.369s3.212-4.015 6.595-5c11.484-3.343 17.85 1.055 17.85 1.055z" fill="#163891"/><path d="m263.02 314.24c8.204-12.127 3.572-39.263 5.654-53.129l2.437-1.493c6.951 0.142 0.048 28.341 2.795 48.615 0 0-4.637 4.373-10.886 6.007z" fill="#0b2973"/><path d="m247.92 261.98c-0.405-4.986 0.759-9.381 0.236-13.584-0.489-3.927-4.491-6.261-3.665-11.047 0.108-2.612 4.609-7.449 4.805-9.356 0.309-3.016 0.515-5.803 6.699-8.771l2.719 0.604c1.296 0.289 2.55 0.72 3.731 1.28 12.606 5.989 15.354 6.282 14.477 13.855-0.143 3.894-2.404 0.864-3.084 3.443-1.306 4.949-6.4 9.986-4.605 18.663 0.363 1.752 1.699 2.944 0.178 4.106-6.591 5.034-19.179 6.001-21.491 0.807z" fill="#a0e7e5"/><path d="m247.5 261.94c-0.016-0.013-7e-3 0.186 0 0z" fill="#ff5cab"/><path d="m270.05 236.41 2.639 9.398-1.581 13.81-4.338 1.562v-11.922c1.839-3.725 2.617-8.244 3.28-12.848z" fill="#6ba6a5"/><path d="m225.42 253.66 2.382 1.391c1.164 0.679 2.662 0.645 3.328-0.075l0.467-0.505c0.668-0.721 0.26-1.866-0.904-2.546l-2.383-1.391c-1.163-0.678-2.661-0.644-3.328 0.076l-0.467 0.504c-0.667 0.721-0.26 1.867 0.905 2.546z" fill="#ec5252"/><path d="m259.51 259 0.071-0.519-0.846 0.25-0.124-0.332-18.815-9.883c-0.227-0.119-0.658-0.109-0.959 0.022l-9.309 4.061 0.017-0.116-1.688 0.517-0.08 0.552h0.011c0.013 0.054 0.056 0.104 0.132 0.144l19.579 10.285c0.227 0.119 0.658 0.109 0.96-0.022l10.781-4.704c0.164-0.071 0.256-0.165 0.269-0.254z" fill="#bec5c8"/><path d="m247.57 263.43-19.579-10.284c-0.226-0.119-0.165-0.324 0.135-0.455l10.782-4.703c0.301-0.131 0.733-0.141 0.959-0.023l19.579 10.286c0.226 0.118 0.166 0.323-0.135 0.455l-10.782 4.703c-0.301 0.131-0.732 0.14-0.959 0.021z" fill="#dde4e8"/><path d="m246.7 257.92-4.739-2.488c-0.054-0.029-0.04-0.078 0.033-0.11l2.609-1.138c0.073-0.032 0.178-0.035 0.232-6e-3l4.739 2.489c0.055 0.029 0.04 0.078-0.033 0.11l-2.609 1.137c-0.073 0.033-0.178 0.035-0.232 6e-3z" fill="#bec5c8"/><g fill="#ec5252"><path d="m269.23 224.29s-4.626 11.369-11.346 8.407c-6.719-2.961-1.85-13.245-1.85-13.245s6.978 1.472 13.196 4.838z"/><path d="m261.42 226.48-0.446 0.092c-1.505 0.311-2.895-0.629-3.088-2.086l-1.088-8.219c-0.193-1.458 0.88-2.905 2.385-3.216l0.446-0.092c1.506-0.31 2.895 0.629 3.088 2.087l2.245 7.651c0.193 1.457-2.037 3.473-3.542 3.783z"/><path d="m267.12 343.34s-5.915 2.473-6.985 1.749c-0.904-0.611 3.471-3.544 3.471-3.544z"/></g><path d="m267.94 223.66s-4.075 11.723-10.783 8.61c-5.206-2.415-1.43-12.111-1.43-12.111l-1.402 0.277s-4.496 11.384 3.105 14.565c6.689 2.799 12.297-10.462 12.297-10.462z" fill="#fbe7c6"/><path d="m257.44 220.42s3.678-0.072 6.22-3.634c0 0-2.535 5.381-5.911 5.97z" fill="#b94141"/><path d="m267.86 247.23s-4.799 4.384-8.166 3.644c0 0 5.963 2.166 8.166 1.396 2.202-0.769 0-5.04 0-5.04z" fill="#6aa6a4"/><path d="m247.04 245.99s0.041 0.066 0.119 0.176c0.377 0.544 1.598 2.181 2.85 2.588l-2.336 0.136" fill="#79adab"/><path d="m246.96 252.64c-0.087-0.439-0.517-0.98-0.962-1.208l-20.692-10.623c-0.184-0.095-0.342-0.12-0.458-0.087l-1e-3 -1e-3 -3e-3 2e-3c-0.041 0.012-0.076 0.031-0.106 0.058l-0.682 0.524 0.621-4e-3 1.995 10.162c0.086 0.438 0.517 0.979 0.963 1.208l19.566 10.044 0.632 0.602 0.079 0.143c0.395 0.093 1.34-0.377 1.34-0.377z" fill="#fff"/><path d="m246.08 248.51c-0.087-0.438-0.517-0.979-0.963-1.207l-20.692-10.623c-0.184-0.095-0.341-0.12-0.456-0.087l-2e-3 -1e-3 -3e-3 2e-3c-0.041 0.012-0.077 0.031-0.106 0.058l-0.683 0.524 0.622-4e-3 1.996 10.162c0.085 0.438 0.516 0.979 0.962 1.208l19.565 10.045 0.633 0.601 0.079 0.143c0.395 0.093 1.339-0.377 1.339-0.377z" fill="#fff"/><path d="m223.77 237.23 20.691 10.622c0.446 0.229 0.877 0.77 0.963 1.208l2.017 10.274c2e-3 8e-3 1e-3 0.013 2e-3 0.021l0.808 4.112c0.085 0.439-0.205 0.609-0.651 0.38l-20.691-10.622c-0.446-0.229-0.877-0.77-0.962-1.208l-2.018-10.274c-1e-3 -7e-3 -1e-3 -0.014-2e-3 -0.02l-0.807-4.113c-0.086-0.438 0.205-0.609 0.65-0.38z" fill="#0e2d82"/><path d="m235.87 251.05c0.023 0.748-0.663 0.99-1.532 0.542-0.869-0.449-1.592-1.419-1.615-2.167-0.022-0.748 0.663-0.99 1.532-0.542 0.87 0.449 1.592 1.419 1.615 2.167z" fill="#fbe7c6"/><path d="m255.88 255.79c6.734 2.933 13.348 4.125 19.861 3.827 1.753-0.08 3.227-1.035 3.86-2.494 1.452-3.342-2.49-5.84-4.841-4.887l-1.435 0.713c-7.28-0.468-11.785 0.949-16.039 0.185z" fill="#ec5252"/><path d="m275.42 258.59c1.684-0.344 2.015-1.71 2.648-3.164 1.022-2.351 2.925-1.165 1.553 1.736-0.678 1.431-2.105 2.409-3.855 2.489-6.504 0.3-13.11-0.886-19.834-3.808 0 0 12.256 4.224 19.488 2.747z" fill="#b94141"/><path d="m278.92 254.11-5.753 0.943s2.629 1.952 5.885 0.361z" fill="#b94141"/><path d="m280.28 253.54s-2.785 2.303-7.175 0.694l-0.32-3.11 7.423-0.824z" fill="#fbe7c6"/><path d="m269.75 236.32 2.286 13.238c0.328 1.899 1.748 3.216 3.467 3.216 2.549 0 5.815-0.607 5.752-3.728-0.171-8.628-2.177-15.276-3.725-19.166-0.672-1.689-1.867-1.217-3.93-2.469-0.334-0.203-2.101 0.798-2.46 1.092-2.189 1.792-1.887 4.943-1.39 7.817z" fill="#a0e7e5"/><path d="m277.52 229.9s4.449 11.813 3.739 19.689c0 0 0.057 2.088-2.332 2.799 0 0 0.804-1.912 0.696-4.288-0.107-2.376-1.003 0.879-1.371 0.033s-0.614-4.022-0.483-6.251c0.132-2.228-1.308-8.538-0.708-10.066s0.459-1.916 0.459-1.916z" fill="#6ba6a5"/><path d="m259.02 255.75c0.175 1.236-0.704 2.36-1.953 2.498l-4.342 0.48c-1.247 0.138-2.411-0.759-2.587-1.993-0.175-1.236 0.703-2.361 1.953-2.499l4.342-0.479c1.247-0.139 2.411 0.759 2.587 1.993z" fill="#ec5252"/><path d="m258.8 203.33c-2.035-1.157-4.023-0.487-5.254 1.467-1.966 0.265-3.561 2.279-3.969 5.438-0.568 4.399 0.625 9.629 3.239 11.8 1.415 1.176 2.426 3.241 6.12 0.455 2.484-1.933 5.085-5.691 5.504-8.934 0.568-4.399-2.671-8.538-5.64-10.226z" fill="#ec5252"/><path d="m260.53 209.21s-1.663 4.447-7.793 3.228c0 0-2.858-0.875-2.222-1.626 6.368-7.517 10.015-1.602 10.015-1.602z" fill="#b94141"/><path d="m250.54 211.34c1.251 0.679 6.202 0.681 7.217-0.624 3.653-4.697 1.023 0.07 3.148 2.478 0 0 2.107 2.403 2.111 2.408 1.457 1.861 3.375-0.237 5.916-0.74l8e-3 -2e-3s3.686-11.749-8.291-13.203c-8.105-0.983-14.664 7.757-11.16 12.879z" fill="#0e2d82"/><path d="m263.76 213.12c-0.136 1.058-1.078 1.975-2.104 2.048s-1.747-0.725-1.61-1.783c0.136-1.058 1.078-1.974 2.104-2.048 1.025-0.073 1.746 0.726 1.61 1.783z" fill="#ec5252"/><path d="m261.65 213.52c-0.272-0.03-0.417-0.304-0.307-0.585 0.157-0.4 0.466-0.864 1.005-0.536 0.545 0.332 0.497 1.157 0.384 1.728-0.019 0.103-0.159 0.121-0.176 0.023-0.052-0.298-0.192-0.603-0.541-0.609-0.146-2e-3 -0.266-0.01-0.365-0.021z" fill="#b94141"/></g><g mask="url(#e)"><path d="m122.84 355.02-22.862-6.306c0.6834-1.163 0.3594-3.086 2.6504-4.695l17.529-12.318c2.29-1.609 6.361-2.321 9.047-1.58l22.863 6.305c2.685 0.741 3.008 2.664 0.717 4.274l-17.529 12.317c-2.29 1.61-6.362 2.321-12.415 2.003z" fill="#c2d7ef"/><g fill="#0e2d82"><path d="m116.99 355.25-22.862-6.305c-2.6853-0.741-3.0088-2.663-0.718-4.273l17.529-12.318c2.291-1.61 6.362-2.32 9.048-1.58l22.862 6.306c2.685 0.741 3.008 2.663 0.718 4.273l-17.529 12.318c-2.291 1.609-6.362 2.32-9.048 1.579z"/><path d="m116.99 355.25-22.862-6.305c-2.6853-0.741-3.0088-2.663-0.718-4.273l17.529-12.318c2.291-1.61 6.362-2.32 9.048-1.58l22.862 6.306c2.685 0.741 3.008 2.663 0.718 4.273l-17.529 12.318c-2.291 1.609-6.362 2.32-9.048 1.579z"/><path d="m92.786 348.42c9.704 2.84 21.814 6.329 26.491 5.727 6.135-0.794 18.915-9.357 24.69-13.049 2.272-1.452 2.089-7.368-0.518-7.994-8.727-2.095-17.929 0.037-26.786 1.44-8.397 1.33-17.004 2.895-24.635 6.726-1.7395 0.873-1.7681 6.406 0.7577 7.15z"/></g><path d="m116.54 350.47-22.862-6.305c-2.6858-0.741-3.0088-2.663-0.7181-4.273l17.529-12.318c2.291-1.609 6.362-2.321 9.047-1.58l22.862 6.306c2.686 0.74 3.009 2.663 0.718 4.273l-17.529 12.317c-2.29 1.61-6.361 2.321-9.047 1.58z" fill="#2f71ff"/><path d="m112.6 332.55-0.648 8.953 19.272-6.751" stroke="#fff" stroke-linecap="round" stroke-linejoin="round" stroke-width="6.8826"/></g><g transform="translate(49.797 15.339)" mask="url(#d)"><path d="m122.84 355.02-22.862-6.306c0.6834-1.163 0.3594-3.086 2.6504-4.695l17.529-12.318c2.29-1.609 6.361-2.321 9.047-1.58l22.863 6.305c2.685 0.741 3.008 2.664 0.717 4.274l-17.529 12.317c-2.29 1.61-6.362 2.321-12.415 2.003z" fill="#c2d7ef"/><g fill="#0e2d82"><path d="m116.99 355.25-22.862-6.305c-2.6853-0.741-3.0088-2.663-0.718-4.273l17.529-12.318c2.291-1.61 6.362-2.32 9.048-1.58l22.862 6.306c2.685 0.741 3.008 2.663 0.718 4.273l-17.529 12.318c-2.291 1.609-6.362 2.32-9.048 1.579z"/><path d="m116.99 355.25-22.862-6.305c-2.6853-0.741-3.0088-2.663-0.718-4.273l17.529-12.318c2.291-1.61 6.362-2.32 9.048-1.58l22.862 6.306c2.685 0.741 3.008 2.663 0.718 4.273l-17.529 12.318c-2.291 1.609-6.362 2.32-9.048 1.579z"/><path d="m92.786 348.42c9.704 2.84 21.814 6.329 26.491 5.727 6.135-0.794 18.915-9.357 24.69-13.049 2.272-1.452 2.089-7.368-0.518-7.994-8.727-2.095-17.929 0.037-26.786 1.44-8.397 1.33-17.004 2.895-24.635 6.726-1.7395 0.873-1.7681 6.406 0.7577 7.15z"/></g><path d="m116.54 350.47-22.862-6.305c-2.6858-0.741-3.0088-2.663-0.7181-4.273l17.529-12.318c2.291-1.609 6.362-2.321 9.047-1.58l22.862 6.306c2.686 0.74 3.009 2.663 0.718 4.273l-17.529 12.317c-2.29 1.61-6.361 2.321-9.047 1.58z" fill="#ff2a2a"/></g><g mask="url(#b)"><path d="m205.29 181.72 2.794-8.96c-3.174-0.831-5.771-4.175-5.771-7.429l-2e-3 -23.894c0-3.255 2.597-5.238 5.771-4.406l99.528 26.075c3.173 0.831 5.771 4.174 5.771 7.429l1e-3 23.894c1e-3 3.255-2.596 5.238-5.77 4.406l-91.093-23.865z" fill="#fff"/><path d="m205.29 181.72 2.794-8.96c-3.174-0.831-5.771-4.175-5.771-7.429l-2e-3 -23.894c0-3.255 2.597-5.238 5.771-4.406l99.528 26.075c3.173 0.831 5.771 4.174 5.771 7.429l1e-3 23.894c1e-3 3.255-2.596 5.238-5.77 4.406l-91.093-23.865z" stroke="#1737a2" stroke-linecap="round" stroke-linejoin="round" stroke-width="4.4387"/><mask id="a" x="157" y="98" width="117" height="120" maskUnits="userSpaceOnUse"><path d="m157.38 98.078 116.18-0.0099 0.01 119.16-116.18 0.01z" fill="#fff"/></mask><g mask="url(#a)"><path d="m216.61 149.45 1.732 4.079c0.161 0.379 0.462 0.677 0.836 0.829l4.042 1.643c1.114 0.453 1.307 1.987 0.342 2.716l-2.229 1.68c-0.462 0.348-0.695 0.933-0.602 1.513l0.452 2.842c0.223 1.405-1.351 2.362-2.445 1.486l-2.75-2.202c-0.382-0.306-0.884-0.407-1.352-0.273l-3.345 0.967c-1.083 0.312-2.112-0.644-1.916-1.779l0.681-3.946c0.078-0.447-0.038-0.905-0.317-1.258l-2.451-3.103c-0.855-1.082-9e-3 -2.684 1.341-2.542l2.535 0.268c0.606 0.064 1.192-0.25 1.488-0.796l1.226-2.26c0.614-1.132 2.227-1.052 2.732 0.136z" fill="#ff9b3d"/></g><mask id="o" x="178" y="103" width="117" height="120" maskUnits="userSpaceOnUse"><path d="m178.06 103.68 116.19-0.014 7e-3 119.16-116.19 0.015z" fill="#fff"/></mask><g mask="url(#o)"><path d="m237.29 155.05 1.732 4.078c0.161 0.379 0.462 0.677 0.836 0.829l4.042 1.643c1.114 0.453 1.307 1.986 0.342 2.715l-2.229 1.68c-0.462 0.348-0.695 0.933-0.603 1.513l0.452 2.842c0.224 1.405-1.35 2.361-2.444 1.486l-2.75-2.202c-0.383-0.306-0.885-0.407-1.352-0.273l-3.346 0.967c-1.083 0.313-2.112-0.643-1.915-1.778l0.681-3.946c0.077-0.446-0.039-0.905-0.317-1.258l-2.452-3.102c-0.854-1.082-9e-3 -2.684 1.342-2.542l2.534 0.268c0.607 0.063 1.193-0.25 1.489-0.797l1.226-2.259c0.614-1.132 2.227-1.052 2.732 0.136z" fill="#ff9b3d"/></g><mask id="n" x="198" y="109" width="117" height="120" maskUnits="userSpaceOnUse"><path d="m198.05 109.16 116.19-0.014 7e-3 119.16-116.19 0.014z" fill="#fff"/></mask><g mask="url(#n)"><path d="m257.28 160.53 1.732 4.077c0.161 0.38 0.462 0.678 0.836 0.83l4.043 1.642c1.114 0.453 1.307 1.987 0.341 2.716l-2.229 1.68c-0.462 0.348-0.694 0.932-0.602 1.512l0.452 2.843c0.223 1.405-1.351 2.361-2.445 1.485l-2.75-2.201c-0.382-0.306-0.884-0.407-1.352-0.273l-3.346 0.967c-1.083 0.313-2.112-0.643-1.915-1.779l0.681-3.945c0.077-0.447-0.038-0.905-0.317-1.258l-2.452-3.102c-0.854-1.082-8e-3 -2.684 1.342-2.542l2.535 0.267c0.607 0.064 1.193-0.249 1.489-0.796l1.225-2.259c0.614-1.132 2.228-1.052 2.732 0.136z" fill="#ff9b3d"/></g><mask id="m" x="218" y="114" width="117" height="120" maskUnits="userSpaceOnUse"><path d="m218.27 114.64 116.19-0.014 7e-3 119.16-116.19 0.014z" fill="#fff"/></mask><g mask="url(#m)"><path d="m277.49 166.01 1.732 4.078c0.161 0.379 0.462 0.677 0.836 0.829l4.042 1.643c1.115 0.453 1.308 1.986 0.342 2.715l-2.229 1.68c-0.462 0.348-0.695 0.933-0.603 1.513l0.452 2.842c0.224 1.405-1.35 2.362-2.444 1.486l-2.75-2.202c-0.382-0.306-0.884-0.407-1.352-0.272l-3.346 0.966c-1.083 0.313-2.112-0.642-1.915-1.778l0.681-3.946c0.077-0.446-0.039-0.905-0.317-1.257l-2.452-3.103c-0.854-1.082-8e-3 -2.684 1.342-2.541l2.534 0.267c0.607 0.064 1.193-0.25 1.489-0.796l1.226-2.26c0.614-1.132 2.228-1.052 2.732 0.136z" fill="#ff9b3d"/></g><mask id="l" x="238" y="120" width="117" height="120" maskUnits="userSpaceOnUse"><path d="m238.72 120.12 116.19-0.014 8e-3 119.16-116.19 0.014z" fill="#fff"/></mask><g mask="url(#l)"><path d="m297.94 171.49 1.732 4.078c0.16 0.379 0.462 0.677 0.836 0.829l4.042 1.643c1.114 0.453 1.307 1.986 0.342 2.715l-2.23 1.68c-0.461 0.348-0.694 0.933-0.602 1.513l0.452 2.842c0.223 1.405-1.35 2.361-2.444 1.486l-2.75-2.202c-0.383-0.306-0.885-0.407-1.352-0.272l-3.346 0.966c-1.083 0.313-2.112-0.642-1.916-1.778l0.682-3.946c0.077-0.446-0.039-0.905-0.317-1.257l-2.452-3.103c-0.854-1.082-9e-3 -2.684 1.341-2.541l2.535 0.267c0.607 0.064 1.193-0.25 1.489-0.796l1.226-2.26c0.614-1.132 2.227-1.052 2.732 0.136z" fill="#ff9b3d"/></g></g><g mask="url(#k)"><g opacity=".93989"><path d="m211.84 210.67-3.573-1.34c-3.157-0.947-5.687-4.354-5.62-7.571l0.49-23.623c0.066-3.218 2.705-5.076 5.863-4.13l15.187 5.025c3.158 0.946 5.687 4.352 5.62 7.57l-0.489 23.623c-0.067 3.218-2.706 5.076-5.864 4.13l-4.856-1.414z" fill="#fff"/><path d="m211.84 210.67-3.573-1.34c-3.157-0.947-5.687-4.354-5.62-7.571l0.49-23.623c0.066-3.218 2.705-5.076 5.863-4.13l15.187 5.025c3.158 0.946 5.687 4.352 5.62 7.57l-0.489 23.623c-0.067 3.218-2.706 5.076-5.864 4.13l-4.856-1.414z" stroke="#1737a2" stroke-linecap="round" stroke-linejoin="round" stroke-width="4.4387"/></g><mask id="j" x="156" y="133" width="120" height="123" maskUnits="userSpaceOnUse"><path d="m159.1 133.85 116.2 4.491-2.436 117.19-116.2-4.491z" fill="#fff"/></mask><g mask="url(#j)"><path d="m217.3 186.78 1.625 4.053c0.153 0.374 0.447 0.681 0.814 0.849l3.989 1.806c1.101 0.498 1.254 1.999 0.278 2.653l-2.263 1.519c-0.467 0.314-0.718 0.871-0.639 1.436l0.381 2.788c0.189 1.373-1.4 2.222-2.472 1.313l-2.684-2.281c-0.377-0.316-0.874-0.44-1.341-0.334l-3.357 0.767c-1.087 0.245-2.092-0.735-1.866-1.831l0.771-3.794c0.09-0.431-0.015-0.882-0.285-1.239l-2.366-3.141c-0.826-1.095 0.056-2.612 1.395-2.403l2.522 0.395c0.601 0.091 1.197-0.184 1.501-0.696l1.277-2.132c0.639-1.07 2.244-0.908 2.72 0.272z" stroke="#91b0f5" stroke-width="2.86"/><path d="m217.34 186.92 1.594 4.017c0.148 0.374 0.438 0.68 0.804 0.85l3.955 1.846c1.091 0.508 1.236 1.988 0.258 2.619l-2.258 1.455c-0.468 0.302-0.716 0.845-0.642 1.406l0.364 2.748c0.179 1.359-1.408 2.166-2.466 1.254l-2.659-2.291c-0.369-0.319-0.864-0.45-1.331-0.353l-3.343 0.697c-1.082 0.225-2.073-0.758-1.844-1.831l0.792-3.726c0.089-0.422-0.012-0.868-0.277-1.224l-2.336-3.134c-0.815-1.092 0.071-2.566 1.404-2.339l2.503 0.428c0.599 0.102 1.189-0.157 1.498-0.66l1.282-2.077c0.641-1.041 2.237-0.855 2.702 0.315z" fill="#fff"/></g></g><g mask="url(#c)" stroke="#fff" stroke-linecap="round" stroke-linejoin="round" stroke-width="6.8826"><path d="m155.75 355.03 20.692-5.022"/><path d="m163.71 346.81 5.145 13.356"/></g></g></g><defs><mask id="p" x="-104" y="0" width="521" height="400" maskUnits="userSpaceOnUse"><path d="m416.22 0h-520v400h520z" fill="#fff"/></mask><clipPath id="q"><rect width="340" height="384" fill="#fff"/></clipPath><mask id="d" x="-77" y="-39" width="466" height="478" maskUnits="userSpaceOnUse"><path d="m-76.15-38.333h464.75v476.67h-464.75z" fill="#fff"/></mask></defs></svg>
