<svg width="13" height="13" viewBox="0 0 13 13" fill="none" xmlns="http://www.w3.org/2000/svg">
<path d="M11.8557 0.594948C11.8359 0.595578 11.816 0.597316 11.7963 0.600159H8.66615C8.59548 0.599156 8.52529 0.612218 8.45975 0.63857C8.39415 0.664922 8.33447 0.704047 8.28412 0.753674C8.23377 0.803295 8.19383 0.862431 8.16652 0.927631C8.13927 0.992836 8.12524 1.06281 8.12524 1.13349C8.12524 1.20417 8.13927 1.27415 8.16652 1.33935C8.19383 1.40455 8.23377 1.46368 8.28412 1.51331C8.33447 1.56293 8.39415 1.60206 8.45975 1.62841C8.52529 1.65477 8.59548 1.66782 8.66615 1.66683H10.5786L5.08908 7.15641C5.03788 7.20553 4.99703 7.26441 4.96887 7.32953C4.94071 7.3947 4.92583 7.46478 4.92513 7.53572C4.92439 7.6067 4.93783 7.6771 4.96465 7.74276C4.99148 7.80846 5.03111 7.86814 5.08129 7.91833C5.13148 7.96852 5.19116 8.00814 5.25687 8.03497C5.32257 8.0618 5.39292 8.07524 5.46391 8.07454C5.53484 8.0738 5.60497 8.05892 5.67009 8.03076C5.73521 8.00265 5.79409 7.96174 5.84321 7.9106L11.3328 2.42099V4.33349C11.3318 4.40414 11.3449 4.47433 11.3712 4.53993C11.3976 4.60548 11.4367 4.66521 11.4863 4.7155C11.536 4.76585 11.5951 4.8058 11.6603 4.8331C11.7255 4.86036 11.7955 4.87444 11.8661 4.87444C11.9368 4.87444 12.0068 4.86036 12.072 4.8331C12.1372 4.8058 12.1963 4.76585 12.246 4.7155C12.2956 4.66521 12.3347 4.60548 12.3611 4.53993C12.3874 4.47433 12.4005 4.40414 12.3995 4.33349V1.2012C12.4101 1.12442 12.4039 1.04623 12.3812 0.972106C12.3585 0.897978 12.32 0.829684 12.2682 0.771978C12.2164 0.714271 12.1527 0.668538 12.0815 0.637962C12.0103 0.607391 11.9332 0.592714 11.8557 0.594948ZM1.19948 2.73349C0.616514 2.73349 0.132812 3.21719 0.132812 3.80016V11.8001C0.132812 12.3831 0.616514 12.8668 1.19948 12.8668H9.19948C9.78247 12.8668 10.2661 12.3831 10.2661 11.8001V6.46681V5.09182L9.19948 6.15849V7.53348V11.8001H1.19948V3.80016H5.46615H6.53281H6.84113L7.9078 2.73349H6.53281H5.46615H1.19948Z" fill="#1863DC"/>
</svg>
