<?xml version="1.0" encoding="UTF-8"?>
<svg version="1.1" viewBox="0 0 300 300" xmlns="http://www.w3.org/2000/svg"><defs><clipPath id="a"><circle cx="10" cy="100" r="5"/><circle cx="10" cy="140" r="5"/><circle cx="10" cy="150" r="5"/><circle cx="10" cy="170" r="5"/><circle cx="10" cy="190" r="5"/><circle cx="20" cy="90" r="5"/><circle cx="20" cy="100" r="5"/><circle cx="20" cy="130" r="5"/><circle cx="20" cy="170" r="5"/><circle cx="20" cy="190" r="5"/><circle cx="20" cy="200" r="5"/><circle cx="20" cy="210" r="5"/><circle cx="30" cy="110" r="5"/><circle cx="30" cy="130" r="5"/><circle cx="30" cy="150" r="5"/><circle cx="30" cy="200" r="5"/><circle cx="30" cy="210" r="5"/><circle cx="40" cy="90" r="5"/><circle cx="40" cy="110" r="5"/><circle cx="40" cy="120" r="5"/><circle cx="40" cy="130" r="5"/><circle cx="40" cy="140" r="5"/><circle cx="40" cy="150" r="5"/><circle cx="40" cy="170" r="5"/><circle cx="40" cy="180" r="5"/><circle cx="50" cy="90" r="5"/><circle cx="50" cy="100" r="5"/><circle cx="50" cy="110" r="5"/><circle cx="50" cy="160" r="5"/><circle cx="50" cy="180" r="5"/><circle cx="50" cy="200" r="5"/><circle cx="60" cy="140" r="5"/><circle cx="60" cy="180" r="5"/><circle cx="60" cy="210" r="5"/><circle cx="70" cy="90" r="5"/><circle cx="70" cy="110" r="5"/><circle cx="70" cy="130" r="5"/><circle cx="70" cy="150" r="5"/><circle cx="70" cy="170" r="5"/><circle cx="70" cy="190" r="5"/><circle cx="70" cy="210" r="5"/><circle cx="80" cy="90" r="5"/><circle cx="80" cy="100" r="5"/><circle cx="80" cy="110" r="5"/><circle cx="80" cy="150" r="5"/><circle cx="80" cy="200" r="5"/><circle cx="80" cy="210" r="5"/><circle cx="90" cy="20" r="5"/><circle cx="90" cy="40" r="5"/><circle cx="90" cy="50" r="5"/><circle cx="90" cy="60" r="5"/><circle cx="90" cy="70" r="5"/><circle cx="90" cy="90" r="5"/><circle cx="90" cy="110" r="5"/><circle cx="90" cy="120" r="5"/><circle cx="90" cy="130" r="5"/><circle cx="90" cy="150" r="5"/><circle cx="90" cy="160" r="5"/><circle cx="90" cy="170" r="5"/><circle cx="90" cy="180" r="5"/><circle cx="90" cy="200" r="5"/><circle cx="90" cy="210" r="5"/><circle cx="90" cy="220" r="5"/><circle cx="90" cy="230" r="5"/><circle cx="90" cy="250" r="5"/><circle cx="90" cy="260" r="5"/><circle cx="90" cy="280" r="5"/><circle cx="100" cy="40" r="5"/><circle cx="100" cy="60" r="5"/><circle cx="100" cy="90" r="5"/><circle cx="100" cy="100" r="5"/><circle cx="100" cy="110" r="5"/><circle cx="100" cy="150" r="5"/><circle cx="100" cy="170" r="5"/><circle cx="100" cy="200" r="5"/><circle cx="100" cy="250" r="5"/><circle cx="100" cy="260" r="5"/><circle cx="100" cy="280" r="5"/><circle cx="110" cy="10" r="5"/><circle cx="110" cy="40" r="5"/><circle cx="110" cy="50" r="5"/><circle cx="110" cy="60" r="5"/><circle cx="110" cy="70" r="5"/><circle cx="110" cy="90" r="5"/><circle cx="110" cy="100" r="5"/><circle cx="110" cy="120" r="5"/><circle cx="110" cy="150" r="5"/><circle cx="110" cy="160" r="5"/><circle cx="110" cy="170" r="5"/><circle cx="110" cy="180" r="5"/><circle cx="110" cy="220" r="5"/><circle cx="110" cy="230" r="5"/><circle cx="120" cy="20" r="5"/><circle cx="120" cy="30" r="5"/><circle cx="120" cy="40" r="5"/><circle cx="120" cy="50" r="5"/><circle cx="120" cy="90" r="5"/><circle cx="120" cy="100" r="5"/><circle cx="120" cy="120" r="5"/><circle cx="120" cy="130" r="5"/><circle cx="120" cy="180" r="5"/><circle cx="120" cy="190" r="5"/><circle cx="120" cy="200" r="5"/><circle cx="120" cy="210" r="5"/><circle cx="120" cy="240" r="5"/><circle cx="120" cy="260" r="5"/><circle cx="120" cy="290" r="5"/><circle cx="130" cy="10" r="5"/><circle cx="130" cy="20" r="5"/><circle cx="130" cy="40" r="5"/><circle cx="130" cy="50" r="5"/><circle cx="130" cy="60" r="5"/><circle cx="130" cy="70" r="5"/><circle cx="130" cy="130" r="5"/><circle cx="130" cy="140" r="5"/><circle cx="130" cy="150" r="5"/><circle cx="130" cy="190" r="5"/><circle cx="130" cy="210" r="5"/><circle cx="130" cy="220" r="5"/><circle cx="130" cy="230" r="5"/><circle cx="130" cy="260" r="5"/><circle cx="130" cy="280" r="5"/><circle cx="140" cy="20" r="5"/><circle cx="140" cy="60" r="5"/><circle cx="140" cy="80" r="5"/><circle cx="140" cy="90" r="5"/><circle cx="140" cy="130" r="5"/><circle cx="140" cy="150" r="5"/><circle cx="140" cy="160" r="5"/><circle cx="140" cy="190" r="5"/><circle cx="140" cy="230" r="5"/><circle cx="140" cy="250" r="5"/><circle cx="140" cy="270" r="5"/><circle cx="140" cy="290" r="5"/><circle cx="150" cy="20" r="5"/><circle cx="150" cy="30" r="5"/><circle cx="150" cy="60" r="5"/><circle cx="150" cy="70" r="5"/><circle cx="150" cy="120" r="5"/><circle cx="150" cy="130" r="5"/><circle cx="150" cy="160" r="5"/><circle cx="150" cy="180" r="5"/><circle cx="150" cy="190" r="5"/><circle cx="150" cy="200" r="5"/><circle cx="150" cy="240" r="5"/><circle cx="150" cy="260" r="5"/><circle cx="150" cy="280" r="5"/><circle cx="150" cy="290" r="5"/><circle cx="160" cy="90" r="5"/><circle cx="160" cy="140" r="5"/><circle cx="160" cy="150" r="5"/><circle cx="160" cy="190" r="5"/><circle cx="160" cy="200" r="5"/><circle cx="160" cy="210" r="5"/><circle cx="160" cy="220" r="5"/><circle cx="160" cy="250" r="5"/><circle cx="160" cy="260" r="5"/><circle cx="160" cy="270" r="5"/><circle cx="160" cy="280" r="5"/><circle cx="160" cy="290" r="5"/><circle cx="170" cy="10" r="5"/><circle cx="170" cy="30" r="5"/><circle cx="170" cy="40" r="5"/><circle cx="170" cy="50" r="5"/><circle cx="170" cy="70" r="5"/><circle cx="170" cy="90" r="5"/><circle cx="170" cy="100" r="5"/><circle cx="170" cy="120" r="5"/><circle cx="170" cy="130" r="5"/><circle cx="170" cy="160" r="5"/><circle cx="170" cy="180" r="5"/><circle cx="170" cy="190" r="5"/><circle cx="170" cy="210" r="5"/><circle cx="170" cy="240" r="5"/><circle cx="170" cy="260" r="5"/><circle cx="180" cy="10" r="5"/><circle cx="180" cy="20" r="5"/><circle cx="180" cy="30" r="5"/><circle cx="180" cy="50" r="5"/><circle cx="180" cy="60" r="5"/><circle cx="180" cy="80" r="5"/><circle cx="180" cy="100" r="5"/><circle cx="180" cy="110" r="5"/><circle cx="180" cy="120" r="5"/><circle cx="180" cy="140" r="5"/><circle cx="180" cy="150" r="5"/><circle cx="180" cy="190" r="5"/><circle cx="180" cy="200" r="5"/><circle cx="180" cy="210" r="5"/><circle cx="180" cy="250" r="5"/><circle cx="180" cy="260" r="5"/><circle cx="180" cy="270" r="5"/><circle cx="190" cy="10" r="5"/><circle cx="190" cy="20" r="5"/><circle cx="190" cy="60" r="5"/><circle cx="190" cy="70" r="5"/><circle cx="190" cy="110" r="5"/><circle cx="190" cy="120" r="5"/><circle cx="190" cy="150" r="5"/><circle cx="190" cy="170" r="5"/><circle cx="190" cy="200" r="5"/><circle cx="190" cy="240" r="5"/><circle cx="190" cy="260" r="5"/><circle cx="190" cy="270" r="5"/><circle cx="190" cy="290" r="5"/><circle cx="200" cy="10" r="5"/><circle cx="200" cy="20" r="5"/><circle cx="200" cy="100" r="5"/><circle cx="200" cy="110" r="5"/><circle cx="200" cy="120" r="5"/><circle cx="200" cy="130" r="5"/><circle cx="200" cy="140" r="5"/><circle cx="200" cy="160" r="5"/><circle cx="200" cy="170" r="5"/><circle cx="200" cy="190" r="5"/><circle cx="200" cy="220" r="5"/><circle cx="200" cy="230" r="5"/><circle cx="200" cy="240" r="5"/><circle cx="200" cy="270" r="5"/><circle cx="200" cy="280" r="5"/><circle cx="210" cy="10" r="5"/><circle cx="210" cy="20" r="5"/><circle cx="210" cy="40" r="5"/><circle cx="210" cy="50" r="5"/><circle cx="210" cy="60" r="5"/><circle cx="210" cy="70" r="5"/><circle cx="210" cy="100" r="5"/><circle cx="210" cy="110" r="5"/><circle cx="210" cy="140" r="5"/><circle cx="210" cy="150" r="5"/><circle cx="210" cy="170" r="5"/><circle cx="210" cy="180" r="5"/><circle cx="210" cy="210" r="5"/><circle cx="210" cy="220" r="5"/><circle cx="210" cy="230" r="5"/><circle cx="210" cy="240" r="5"/><circle cx="210" cy="250" r="5"/><circle cx="210" cy="260" r="5"/><circle cx="210" cy="270" r="5"/><circle cx="220" cy="90" r="5"/><circle cx="220" cy="130" r="5"/><circle cx="220" cy="140" r="5"/><circle cx="220" cy="160" r="5"/><circle cx="220" cy="180" r="5"/><circle cx="220" cy="210" r="5"/><circle cx="220" cy="250" r="5"/><circle cx="220" cy="260" r="5"/><circle cx="220" cy="270" r="5"/><circle cx="230" cy="120" r="5"/><circle cx="230" cy="140" r="5"/><circle cx="230" cy="160" r="5"/><circle cx="230" cy="170" r="5"/><circle cx="230" cy="200" r="5"/><circle cx="230" cy="210" r="5"/><circle cx="230" cy="230" r="5"/><circle cx="230" cy="250" r="5"/><circle cx="230" cy="270" r="5"/><circle cx="240" cy="90" r="5"/><circle cx="240" cy="100" r="5"/><circle cx="240" cy="110" r="5"/><circle cx="240" cy="140" r="5"/><circle cx="240" cy="150" r="5"/><circle cx="240" cy="170" r="5"/><circle cx="240" cy="190" r="5"/><circle cx="240" cy="200" r="5"/><circle cx="240" cy="210" r="5"/><circle cx="240" cy="250" r="5"/><circle cx="240" cy="260" r="5"/><circle cx="240" cy="280" r="5"/><circle cx="250" cy="90" r="5"/><circle cx="250" cy="110" r="5"/><circle cx="250" cy="120" r="5"/><circle cx="250" cy="140" r="5"/><circle cx="250" cy="160" r="5"/><circle cx="250" cy="180" r="5"/><circle cx="250" cy="200" r="5"/><circle cx="250" cy="210" r="5"/><circle cx="250" cy="220" r="5"/><circle cx="250" cy="230" r="5"/><circle cx="250" cy="240" r="5"/><circle cx="250" cy="250" r="5"/><circle cx="250" cy="290" r="5"/><circle cx="260" cy="90" r="5"/><circle cx="260" cy="100" r="5"/><circle cx="260" cy="140" r="5"/><circle cx="260" cy="150" r="5"/><circle cx="260" cy="190" r="5"/><circle cx="260" cy="240" r="5"/><circle cx="260" cy="260" r="5"/><circle cx="260" cy="280" r="5"/><circle cx="270" cy="130" r="5"/><circle cx="270" cy="160" r="5"/><circle cx="270" cy="190" r="5"/><circle cx="270" cy="210" r="5"/><circle cx="270" cy="220" r="5"/><circle cx="270" cy="240" r="5"/><circle cx="270" cy="250" r="5"/><circle cx="270" cy="280" r="5"/><circle cx="270" cy="290" r="5"/><circle cx="280" cy="90" r="5"/><circle cx="280" cy="100" r="5"/><circle cx="280" cy="120" r="5"/><circle cx="280" cy="130" r="5"/><circle cx="280" cy="170" r="5"/><circle cx="280" cy="190" r="5"/><circle cx="280" cy="220" r="5"/><circle cx="280" cy="230" r="5"/><circle cx="280" cy="250" r="5"/><circle cx="280" cy="260" r="5"/><circle cx="280" cy="270" r="5"/><circle cx="280" cy="290" r="5"/><circle cx="290" cy="150" r="5"/><circle cx="290" cy="160" r="5"/><circle cx="290" cy="200" r="5"/><circle cx="290" cy="210" r="5"/><circle cx="290" cy="220" r="5"/><circle cx="290" cy="230" r="5"/><circle cx="290" cy="240" r="5"/><circle cx="290" cy="250" r="5"/><path d="M5 30v20a25 25 0 0 0 25 25h20a25 25 0 0 0 25-25V30A25 25 0 0 0 50 5H30A25 25 0 0 0 5 30m25-15h20a15 15 0 0 1 15 15v20a15 15 0 0 1-15 15H30a15 15 0 0 1-15-15V30a15 15 0 0 1 15-15" clip-rule="evenodd"/><circle cx="30" cy="30" r="5"/><circle cx="30" cy="40" r="5"/><circle cx="30" cy="50" r="5"/><circle cx="40" cy="30" r="5"/><circle cx="40" cy="40" r="5"/><circle cx="40" cy="50" r="5"/><circle cx="50" cy="30" r="5"/><circle cx="50" cy="40" r="5"/><circle cx="50" cy="50" r="5"/><path d="M270 5h-20a25 25 0 0 0-25 25v20a25 25 0 0 0 25 25h20a25 25 0 0 0 25-25V30a25 25 0 0 0-25-25m15 25v20a15 15 0 0 1-15 15h-20a15 15 0 0 1-15-15V30a15 15 0 0 1 15-15h20a15 15 0 0 1 15 15" clip-rule="evenodd"/><circle cx="250" cy="30" r="5"/><circle cx="250" cy="40" r="5"/><circle cx="250" cy="50" r="5"/><circle cx="260" cy="30" r="5"/><circle cx="260" cy="40" r="5"/><circle cx="260" cy="50" r="5"/><circle cx="270" cy="30" r="5"/><circle cx="270" cy="40" r="5"/><circle cx="270" cy="50" r="5"/><path d="M30 295h20a25 25 0 0 0 25-25v-20a25 25 0 0 0-25-25H30a25 25 0 0 0-25 25v20a25 25 0 0 0 25 25m-15-25v-20a15 15 0 0 1 15-15h20a15 15 0 0 1 15 15v20a15 15 0 0 1-15 15H30a15 15 0 0 1-15-15" clip-rule="evenodd"/><circle cx="30" cy="250" r="5"/><circle cx="30" cy="260" r="5"/><circle cx="30" cy="270" r="5"/><circle cx="40" cy="250" r="5"/><circle cx="40" cy="260" r="5"/><circle cx="40" cy="270" r="5"/><circle cx="50" cy="250" r="5"/><circle cx="50" cy="260" r="5"/><circle cx="50" cy="270" r="5"/></clipPath></defs><path d="M0 0h300v300H0z" clip-path="url('#a')"/></svg>
